<?xml version="1.0" standalone="no"?>
<!DOCTYPE svg PUBLIC "-//W3C//DTD SVG 20010904//EN"
 "http://www.w3.org/TR/2001/REC-SVG-20010904/DTD/svg10.dtd">
<svg version="1.0" xmlns="http://www.w3.org/2000/svg"
 width="720.000000pt" height="720.000000pt" viewBox="0 0 720.000000 720.000000"
 preserveAspectRatio="xMidYMid meet">
<metadata>
Created by potrace 1.14, written by Peter Selinger 2001-2017
</metadata>
<g transform="translate(0.000000,720.000000) scale(0.100000,-0.100000)"
fill="#000000" stroke="none">
<path d="M3522 7115 c-257 -271 -470 -653 -576 -1033 -62 -219 -96 -471 -96
-711 l0 -144 -108 104 c-427 413 -1007 661 -1628 695 l-127 7 7 -129 c12 -241
51 -448 126 -674 101 -308 240 -562 447 -817 47 -58 83 -106 81 -107 -1 -1
-39 -8 -83 -15 -377 -60 -786 -237 -1108 -480 -97 -73 -257 -217 -257 -231 0
-25 234 -222 378 -318 262 -176 585 -312 880 -373 64 -14 111 -28 108 -34 -2
-6 -32 -48 -68 -95 -228 -302 -394 -681 -462 -1054 -26 -139 -46 -322 -46
-420 l0 -59 128 7 c624 33 1213 289 1655 720 l77 76 0 -143 c1 -663 244 -1288
688 -1761 l62 -67 63 67 c281 301 487 672 601 1084 46 170 86 453 86 623 0 48
4 87 8 87 5 0 17 -10 28 -21 33 -36 210 -176 302 -237 384 -257 827 -403 1295
-428 l127 -7 0 60 c0 79 -17 256 -36 368 -65 389 -234 784 -468 1099 -37 49
-65 90 -63 93 2 2 44 10 93 19 381 65 776 233 1082 462 111 82 294 242 290
253 -5 14 -151 142 -238 210 -242 188 -493 321 -780 414 -129 42 -342 90 -440
101 -36 3 -70 9 -77 13 -7 4 14 37 59 91 244 297 446 718 523 1093 28 138 55
364 55 465 l0 62 -52 0 c-80 0 -272 -19 -373 -36 -461 -78 -903 -286 -1250
-589 -41 -36 -77 -65 -80 -65 -3 0 -5 35 -5 78 0 602 -256 1250 -668 1694
l-81 87 -79 -84z"/>
</g>
</svg>
